<svg id="visual" viewBox="0 0 1000 100" width="1000" height="100" xmlns="http://www.w3.org/2000/svg" xmlns:xlink="http://www.w3.org/1999/xlink" version="1.1"><rect x="0" y="0" width="1000" height="100" fill="#1a191d"></rect><path d="M0 58L9.8 57.3C19.7 56.7 39.3 55.3 59 52.8C78.7 50.3 98.3 46.7 117.8 48.2C137.3 49.7 156.7 56.3 176.2 58.3C195.7 60.3 215.3 57.7 235 59C254.7 60.3 274.3 65.7 294 67.3C313.7 69 333.3 67 353 62.7C372.7 58.3 392.3 51.7 412 53.3C431.7 55 451.3 65 470.8 65.5C490.3 66 509.7 57 529.2 52C548.7 47 568.3 46 588 47C607.7 48 627.3 51 647 51C666.7 51 686.3 48 706 49.3C725.7 50.7 745.3 56.3 765 62C784.7 67.7 804.3 73.3 823.8 73.5C843.3 73.7 862.7 68.3 882.2 62.5C901.7 56.7 921.3 50.3 941 47.5C960.7 44.7 980.3 45.3 990.2 45.7L1000 46L1000 0L990.2 0C980.3 0 960.7 0 941 0C921.3 0 901.7 0 882.2 0C862.7 0 843.3 0 823.8 0C804.3 0 784.7 0 765 0C745.3 0 725.7 0 706 0C686.3 0 666.7 0 647 0C627.3 0 607.7 0 588 0C568.3 0 548.7 0 529.2 0C509.7 0 490.3 0 470.8 0C451.3 0 431.7 0 412 0C392.3 0 372.7 0 353 0C333.3 0 313.7 0 294 0C274.3 0 254.7 0 235 0C215.3 0 195.7 0 176.2 0C156.7 0 137.3 0 117.8 0C98.3 0 78.7 0 59 0C39.3 0 19.7 0 9.8 0L0 0Z" fill="#0388a6"></path><path d="M0 30L9.8 29.8C19.7 29.7 39.3 29.3 59 30.5C78.7 31.7 98.3 34.3 117.8 37.2C137.3 40 156.7 43 176.2 41.3C195.7 39.7 215.3 33.3 235 33.5C254.7 33.7 274.3 40.3 294 40.7C313.7 41 333.3 35 353 35.2C372.7 35.3 392.3 41.7 412 44.5C431.7 47.3 451.3 46.7 470.8 46.8C490.3 47 509.7 48 529.2 50C548.7 52 568.3 55 588 52.3C607.7 49.7 627.3 41.3 647 38.3C666.7 35.3 686.3 37.7 706 37.8C725.7 38 745.3 36 765 37.2C784.7 38.3 804.3 42.7 823.8 42.2C843.3 41.7 862.7 36.3 882.2 37.7C901.7 39 921.3 47 941 48C960.7 49 980.3 43 990.2 40L1000 37L1000 0L990.2 0C980.3 0 960.7 0 941 0C921.3 0 901.7 0 882.2 0C862.7 0 843.3 0 823.8 0C804.3 0 784.7 0 765 0C745.3 0 725.7 0 706 0C686.3 0 666.7 0 647 0C627.3 0 607.7 0 588 0C568.3 0 548.7 0 529.2 0C509.7 0 490.3 0 470.8 0C451.3 0 431.7 0 412 0C392.3 0 372.7 0 353 0C333.3 0 313.7 0 294 0C274.3 0 254.7 0 235 0C215.3 0 195.7 0 176.2 0C156.7 0 137.3 0 117.8 0C98.3 0 78.7 0 59 0C39.3 0 19.7 0 9.8 0L0 0Z" fill="#006fad"></path><path d="M0 20L9.8 18.8C19.7 17.7 39.3 15.3 59 17.7C78.7 20 98.3 27 117.8 28C137.3 29 156.7 24 176.2 23C195.7 22 215.3 25 235 24.3C254.7 23.7 274.3 19.3 294 18.5C313.7 17.7 333.3 20.3 353 22.8C372.7 25.3 392.3 27.7 412 29.8C431.7 32 451.3 34 470.8 31C490.3 28 509.7 20 529.2 17.8C548.7 15.7 568.3 19.3 588 20.8C607.7 22.3 627.3 21.7 647 21.3C666.7 21 686.3 21 706 19.7C725.7 18.3 745.3 15.7 765 16C784.7 16.3 804.3 19.7 823.8 20.7C843.3 21.7 862.7 20.3 882.2 19.5C901.7 18.7 921.3 18.3 941 17.2C960.7 16 980.3 14 990.2 13L1000 12L1000 0L990.2 0C980.3 0 960.7 0 941 0C921.3 0 901.7 0 882.2 0C862.7 0 843.3 0 823.8 0C804.3 0 784.7 0 765 0C745.3 0 725.7 0 706 0C686.3 0 666.7 0 647 0C627.3 0 607.7 0 588 0C568.3 0 548.7 0 529.2 0C509.7 0 490.3 0 470.8 0C451.3 0 431.7 0 412 0C392.3 0 372.7 0 353 0C333.3 0 313.7 0 294 0C274.3 0 254.7 0 235 0C215.3 0 195.7 0 176.2 0C156.7 0 137.3 0 117.8 0C98.3 0 78.7 0 59 0C39.3 0 19.7 0 9.8 0L0 0Z" fill="#1a191d"></path></svg>