<svg id="visual" viewBox="0 0 1000 100" width="1000" height="100" xmlns="http://www.w3.org/2000/svg" xmlns:xlink="http://www.w3.org/1999/xlink" version="1.1"><rect x="0" y="0" width="1000" height="100" fill="#ffffff"></rect><path d="M0 40L9.8 40.7C19.7 41.3 39.3 42.7 59 45.2C78.7 47.7 98.3 51.3 117.8 49.8C137.3 48.3 156.7 41.7 176.2 39.7C195.7 37.7 215.3 40.3 235 39C254.7 37.7 274.3 32.3 294 30.7C313.7 29 333.3 31 353 35.3C372.7 39.7 392.3 46.3 412 44.7C431.7 43 451.3 33 470.8 32.5C490.3 32 509.7 41 529.2 46C548.7 51 568.3 52 588 51C607.7 50 627.3 47 647 47C666.7 47 686.3 50 706 48.7C725.7 47.3 745.3 41.7 765 36C784.7 30.3 804.3 24.7 823.8 24.5C843.3 24.3 862.7 29.7 882.2 35.5C901.7 41.3 921.3 47.7 941 50.5C960.7 53.3 980.3 52.7 990.2 52.3L1000 52L1000 101L990.2 101C980.3 101 960.7 101 941 101C921.3 101 901.7 101 882.2 101C862.7 101 843.3 101 823.8 101C804.3 101 784.7 101 765 101C745.3 101 725.7 101 706 101C686.3 101 666.7 101 647 101C627.3 101 607.7 101 588 101C568.3 101 548.7 101 529.2 101C509.7 101 490.3 101 470.8 101C451.3 101 431.7 101 412 101C392.3 101 372.7 101 353 101C333.3 101 313.7 101 294 101C274.3 101 254.7 101 235 101C215.3 101 195.7 101 176.2 101C156.7 101 137.3 101 117.8 101C98.3 101 78.7 101 59 101C39.3 101 19.7 101 9.8 101L0 101Z" fill="#0388a6"></path><path d="M0 68L9.8 68.2C19.7 68.3 39.3 68.7 59 67.5C78.7 66.3 98.3 63.7 117.8 60.8C137.3 58 156.7 55 176.2 56.7C195.7 58.3 215.3 64.7 235 64.5C254.7 64.3 274.3 57.7 294 57.3C313.7 57 333.3 63 353 62.8C372.7 62.7 392.3 56.3 412 53.5C431.7 50.7 451.3 51.3 470.8 51.2C490.3 51 509.7 50 529.2 48C548.7 46 568.3 43 588 45.7C607.7 48.3 627.3 56.7 647 59.7C666.7 62.7 686.3 60.3 706 60.2C725.7 60 745.3 62 765 60.8C784.7 59.7 804.3 55.3 823.8 55.8C843.3 56.3 862.7 61.7 882.2 60.3C901.7 59 921.3 51 941 50C960.7 49 980.3 55 990.2 58L1000 61L1000 101L990.2 101C980.3 101 960.7 101 941 101C921.3 101 901.7 101 882.2 101C862.7 101 843.3 101 823.8 101C804.3 101 784.7 101 765 101C745.3 101 725.7 101 706 101C686.3 101 666.7 101 647 101C627.3 101 607.7 101 588 101C568.3 101 548.7 101 529.2 101C509.7 101 490.3 101 470.8 101C451.3 101 431.7 101 412 101C392.3 101 372.7 101 353 101C333.3 101 313.7 101 294 101C274.3 101 254.7 101 235 101C215.3 101 195.7 101 176.2 101C156.7 101 137.3 101 117.8 101C98.3 101 78.7 101 59 101C39.3 101 19.7 101 9.8 101L0 101Z" fill="#006fad"></path><path d="M0 78L9.8 79.2C19.7 80.3 39.3 82.7 59 80.3C78.7 78 98.3 71 117.8 70C137.3 69 156.7 74 176.2 75C195.7 76 215.3 73 235 73.7C254.7 74.3 274.3 78.7 294 79.5C313.7 80.3 333.3 77.7 353 75.2C372.7 72.7 392.3 70.3 412 68.2C431.7 66 451.3 64 470.8 67C490.3 70 509.7 78 529.2 80.2C548.7 82.3 568.3 78.7 588 77.2C607.7 75.7 627.3 76.3 647 76.7C666.7 77 686.3 77 706 78.3C725.7 79.7 745.3 82.3 765 82C784.7 81.7 804.3 78.3 823.8 77.3C843.3 76.3 862.7 77.7 882.2 78.5C901.7 79.3 921.3 79.7 941 80.8C960.7 82 980.3 84 990.2 85L1000 86L1000 101L990.2 101C980.3 101 960.7 101 941 101C921.3 101 901.7 101 882.2 101C862.7 101 843.3 101 823.8 101C804.3 101 784.7 101 765 101C745.3 101 725.7 101 706 101C686.3 101 666.7 101 647 101C627.3 101 607.7 101 588 101C568.3 101 548.7 101 529.2 101C509.7 101 490.3 101 470.8 101C451.3 101 431.7 101 412 101C392.3 101 372.7 101 353 101C333.3 101 313.7 101 294 101C274.3 101 254.7 101 235 101C215.3 101 195.7 101 176.2 101C156.7 101 137.3 101 117.8 101C98.3 101 78.7 101 59 101C39.3 101 19.7 101 9.8 101L0 101Z" fill="#1a191d"></path></svg>