<svg id="visual" viewBox="0 0 1000 100" width="1000" height="100" xmlns="http://www.w3.org/2000/svg" xmlns:xlink="http://www.w3.org/1999/xlink" version="1.1"><rect x="0" y="0" width="1000" height="100" fill="#1a191d"></rect><path d="M0 67L23.8 68C47.7 69 95.3 71 143 71.2C190.7 71.3 238.3 69.7 286 64.7C333.7 59.7 381.3 51.3 428.8 47.5C476.3 43.7 523.7 44.3 571.2 46.5C618.7 48.7 666.3 52.3 714 55C761.7 57.7 809.3 59.3 857 59.3C904.7 59.3 952.3 57.7 976.2 56.8L1000 56L1000 0L976.2 0C952.3 0 904.7 0 857 0C809.3 0 761.7 0 714 0C666.3 0 618.7 0 571.2 0C523.7 0 476.3 0 428.8 0C381.3 0 333.7 0 286 0C238.3 0 190.7 0 143 0C95.3 0 47.7 0 23.8 0L0 0Z" fill="#FFFFFF" stroke-linecap="round" stroke-linejoin="miter"></path></svg>