<svg id="visual" viewBox="0 0 1000 100" width="1000" height="100" xmlns="http://www.w3.org/2000/svg" xmlns:xlink="http://www.w3.org/1999/xlink" version="1.1"><rect x="0" y="0" width="1000" height="100" fill="#1a191d"></rect><path d="M0 69L33.3 71.2C66.7 73.3 133.3 77.7 200 77.5C266.7 77.3 333.3 72.7 400 67.3C466.7 62 533.3 56 600 58.8C666.7 61.7 733.3 73.3 800 81.3C866.7 89.3 933.3 93.7 966.7 95.8L1000 98L1000 0L966.7 0C933.3 0 866.7 0 800 0C733.3 0 666.7 0 600 0C533.3 0 466.7 0 400 0C333.3 0 266.7 0 200 0C133.3 0 66.7 0 33.3 0L0 0Z" fill="#006fad"></path><path d="M0 40L33.3 40.2C66.7 40.3 133.3 40.7 200 43.7C266.7 46.7 333.3 52.3 400 50.7C466.7 49 533.3 40 600 36.8C666.7 33.7 733.3 36.3 800 38.7C866.7 41 933.3 43 966.7 44L1000 45L1000 0L966.7 0C933.3 0 866.7 0 800 0C733.3 0 666.7 0 600 0C533.3 0 466.7 0 400 0C333.3 0 266.7 0 200 0C133.3 0 66.7 0 33.3 0L0 0Z" fill="#0388a6"></path><path d="M0 1L33.3 5.7C66.7 10.3 133.3 19.7 200 19.5C266.7 19.3 333.3 9.7 400 5.5C466.7 1.3 533.3 2.7 600 7.8C666.7 13 733.3 22 800 28.3C866.7 34.7 933.3 38.3 966.7 40.2L1000 42L1000 0L966.7 0C933.3 0 866.7 0 800 0C733.3 0 666.7 0 600 0C533.3 0 466.7 0 400 0C333.3 0 266.7 0 200 0C133.3 0 66.7 0 33.3 0L0 0Z" fill="#1a191d"></path></svg>