<svg id="visual" viewBox="0 0 1000 100" width="1000" height="100" xmlns="http://www.w3.org/2000/svg" xmlns:xlink="http://www.w3.org/1999/xlink" version="1.1"><rect x="0" y="0" width="1000" height="100" fill="#ffffff"></rect><path d="M0 62L15.2 58.3C30.3 54.7 60.7 47.3 91 47.5C121.3 47.7 151.7 55.3 182 55.7C212.3 56 242.7 49 273 47.7C303.3 46.3 333.7 50.7 364 51.7C394.3 52.7 424.7 50.3 454.8 47.5C485 44.7 515 41.3 545.2 44.7C575.3 48 605.7 58 636 63.7C666.3 69.3 696.7 70.7 727 65.8C757.3 61 787.7 50 818 49.2C848.3 48.3 878.7 57.7 909 58.5C939.3 59.3 969.7 51.7 984.8 47.8L1000 44L1000 101L984.8 101C969.7 101 939.3 101 909 101C878.7 101 848.3 101 818 101C787.7 101 757.3 101 727 101C696.7 101 666.3 101 636 101C605.7 101 575.3 101 545.2 101C515 101 485 101 454.8 101C424.7 101 394.3 101 364 101C333.7 101 303.3 101 273 101C242.7 101 212.3 101 182 101C151.7 101 121.3 101 91 101C60.7 101 30.3 101 15.2 101L0 101Z" fill="#1a191d" stroke-linecap="round" stroke-linejoin="miter"></path></svg>