<svg id="visual" viewBox="0 0 1000 100" width="1000" height="100" xmlns="http://www.w3.org/2000/svg" xmlns:xlink="http://www.w3.org/1999/xlink" version="1.1"><rect x="0" y="0" width="1000" height="100" fill="#ffffff"></rect><path d="M0 36L15.2 39.7C30.3 43.3 60.7 50.7 91 50.5C121.3 50.3 151.7 42.7 182 42.3C212.3 42 242.7 49 273 50.3C303.3 51.7 333.7 47.3 364 46.3C394.3 45.3 424.7 47.7 454.8 50.5C485 53.3 515 56.7 545.2 53.3C575.3 50 605.7 40 636 34.3C666.3 28.7 696.7 27.3 727 32.2C757.3 37 787.7 48 818 48.8C848.3 49.7 878.7 40.3 909 39.5C939.3 38.7 969.7 46.3 984.8 50.2L1000 54L1000 0L984.8 0C969.7 0 939.3 0 909 0C878.7 0 848.3 0 818 0C787.7 0 757.3 0 727 0C696.7 0 666.3 0 636 0C605.7 0 575.3 0 545.2 0C515 0 485 0 454.8 0C424.7 0 394.3 0 364 0C333.7 0 303.3 0 273 0C242.7 0 212.3 0 182 0C151.7 0 121.3 0 91 0C60.7 0 30.3 0 15.2 0L0 0Z" fill="#1a191d" stroke-linecap="round" stroke-linejoin="miter"></path></svg>