<svg id="visual" viewBox="0 0 1000 100" width="1000" height="100" xmlns="http://www.w3.org/2000/svg" xmlns:xlink="http://www.w3.org/1999/xlink" version="1.1"><rect x="0" y="0" width="1000" height="100" fill="#1a191d"></rect><path d="M0 69L23.8 63.3C47.7 57.7 95.3 46.3 143 45.3C190.7 44.3 238.3 53.7 286 52.2C333.7 50.7 381.3 38.3 428.8 33.2C476.3 28 523.7 30 571.2 33.8C618.7 37.7 666.3 43.3 714 46.2C761.7 49 809.3 49 857 47.7C904.7 46.3 952.3 43.7 976.2 42.3L1000 41L1000 101L976.2 101C952.3 101 904.7 101 857 101C809.3 101 761.7 101 714 101C666.3 101 618.7 101 571.2 101C523.7 101 476.3 101 428.8 101C381.3 101 333.7 101 286 101C238.3 101 190.7 101 143 101C95.3 101 47.7 101 23.8 101L0 101Z" fill="#FFFFFF" stroke-linecap="round" stroke-linejoin="miter"></path></svg>